<svg xmlns="http://www.w3.org/2000/svg" width="93.518" height="83.965" viewBox="0 0 93.518 83.965"><defs><style>.a,.b{fill:#fff;}.b{fill-rule:evenodd;}</style></defs><path class="a" d="M124.653,255.513A25.172,25.172,0,0,1,99.6,230.28h1.512a23.541,23.541,0,1,0,47.081,0h1.512A25.172,25.172,0,0,1,124.653,255.513Z" transform="translate(-77.99 -180.645)"/><path class="a" d="M135.247,252.556A22.222,22.222,0,0,1,113.13,230.28h1.512a20.606,20.606,0,1,0,41.21,0h1.512A22.222,22.222,0,0,1,135.247,252.556Z" transform="translate(-88.585 -180.645)"/><g transform="translate(13.994 0.108)"><path class="a" d="M114.517,51.537l.115-41.377c.9-6.381,7.513-6.359,7.513-6.359V2.01H112.97V10.2h0L113,51.537" transform="translate(-102.454 -2.01)"/><path class="a" d="M284.365,51.537,284.53,10.2V2.01h-9.21V3.8s6.676-.024,7.55,6.4l-.019,41.332" transform="translate(-229.58 -2.01)"/><path class="a" d="M325.082,51.537l.23-41.332h0c.874-6.429,7.52-6.4,7.52-6.4V2.01h-9.175v.673h0l-.082,48.854" transform="translate(-267.361 -2.01)"/><path class="a" d="M73.628,51.537,73.686,10.2h.022V2.01H64.5V3.8s6.646-.024,7.52,6.4h.009l.087,41.332" transform="translate(-64.5 -2.01)"/></g><g transform="translate(13.452 77.673)"><path class="a" d="M65.582,359.51l2.829,6.158H66.9l-.757-1.647H63.8l-.792,1.647H62l2.942-6.158Zm-1.5,3.953h1.816L65,361.515Z" transform="translate(-62 -359.51)"/><path class="a" d="M101.4,360.09h1.482v3.879a1.954,1.954,0,0,0,.108.653,1.571,1.571,0,0,0,.312.536,1.488,1.488,0,0,0,.49.362,1.525,1.525,0,0,0,.647.135,1.476,1.476,0,0,0,.636-.135,1.494,1.494,0,0,0,.486-.362,1.64,1.64,0,0,0,.31-.536,1.909,1.909,0,0,0,.109-.653V360.09h.935v3.879a2.442,2.442,0,0,1-.158.883,1.886,1.886,0,0,1-.5.727,2.449,2.449,0,0,1-.868.495,3.932,3.932,0,0,1-1.274.182,3.461,3.461,0,0,1-1.172-.182,2.489,2.489,0,0,1-.853-.5,2.078,2.078,0,0,1-.519-.731,2.268,2.268,0,0,1-.176-.89Z" transform="translate(-92.852 -359.964)"/><path class="a" d="M143.3,360.09v.516h-2.087v5.517h-1.478v-5.517H137.64v-.516Z" transform="translate(-121.229 -359.964)"/><path class="a" d="M174.818,365.8a3.851,3.851,0,0,1-1.363-.236,3.286,3.286,0,0,1-1.094-.662,3.056,3.056,0,0,1-.992-2.293,2.934,2.934,0,0,1,.992-2.237,3.288,3.288,0,0,1,1.094-.636,4.035,4.035,0,0,1,1.363-.228,3.92,3.92,0,0,1,1.36.23,3.372,3.372,0,0,1,1.094.638,2.978,2.978,0,0,1,.731.976,2.879,2.879,0,0,1,.267,1.243,3.293,3.293,0,0,1-.119.9,3.085,3.085,0,0,1-.343.781,2.888,2.888,0,0,1-.534.636,3.238,3.238,0,0,1-.7.475,3.688,3.688,0,0,1-.829.3A3.854,3.854,0,0,1,174.818,365.8Zm0-.508a1.494,1.494,0,0,0,.779-.2,1.689,1.689,0,0,0,.564-.558,2.79,2.79,0,0,0,.345-.848,4.627,4.627,0,0,0,.117-1.074,4.4,4.4,0,0,0-.117-1.05,2.576,2.576,0,0,0-.345-.818,1.675,1.675,0,0,0-.564-.534,1.693,1.693,0,0,0-1.562,0,1.636,1.636,0,0,0-.564.534,2.625,2.625,0,0,0-.343.818,4.4,4.4,0,0,0-.115,1.05,4.752,4.752,0,0,0,.115,1.074,2.758,2.758,0,0,0,.343.848,1.709,1.709,0,0,0,.564.558A1.5,1.5,0,0,0,174.818,365.294Z" transform="translate(-147.641 -359.51)"/><path class="a" d="M215.65,360.09h.948l3.439,3.836V360.09h.926v6.123h-.636l-3.738-4.235v4.146h-.939V360.09Z" transform="translate(-182.313 -359.964)"/><path class="a" d="M256.1,365.8a3.851,3.851,0,0,1-1.363-.236,3.286,3.286,0,0,1-1.094-.662,3.056,3.056,0,0,1-.992-2.293,2.934,2.934,0,0,1,.992-2.237,3.288,3.288,0,0,1,1.094-.636,4.035,4.035,0,0,1,1.363-.228,3.92,3.92,0,0,1,1.36.23,3.354,3.354,0,0,1,1.094.638,2.978,2.978,0,0,1,.731.976,2.88,2.88,0,0,1,.267,1.243,3.292,3.292,0,0,1-.119.9,3.083,3.083,0,0,1-.343.781,2.887,2.887,0,0,1-.534.636,3.238,3.238,0,0,1-.7.475,3.667,3.667,0,0,1-.831.3A3.824,3.824,0,0,1,256.1,365.8Zm0-.508a1.494,1.494,0,0,0,.779-.2,1.69,1.69,0,0,0,.564-.558,2.789,2.789,0,0,0,.345-.848,4.627,4.627,0,0,0,.117-1.074,4.395,4.395,0,0,0-.117-1.05,2.574,2.574,0,0,0-.345-.818,1.674,1.674,0,0,0-.564-.534,1.693,1.693,0,0,0-1.562,0,1.635,1.635,0,0,0-.564.534,2.625,2.625,0,0,0-.343.818,4.4,4.4,0,0,0-.115,1.05,4.754,4.754,0,0,0,.115,1.074,2.757,2.757,0,0,0,.343.848,1.708,1.708,0,0,0,.564.558A1.5,1.5,0,0,0,256.1,365.294Z" transform="translate(-211.286 -359.51)"/><path class="a" d="M296.93,360.09h1.441l2.087,4.12,2.055-4.12h1.41v6.034h-1.478V362.19l-1.97,3.934h-.568l-2.037-3.977v3.977h-.939V360.09Z" transform="translate(-245.958 -359.964)"/><path class="a" d="M342.862,359.51l2.829,6.158h-1.512l-.757-1.647h-2.345l-.792,1.647h-1l2.942-6.158Zm-1.5,3.953h1.816l-.894-1.948Z" transform="translate(-279.12 -359.51)"/></g><g transform="translate(0 0)"><path class="a" d="M6.166,1.51V2.992H2.287a1.955,1.955,0,0,0-.653.108,1.571,1.571,0,0,0-.536.312,1.488,1.488,0,0,0-.362.49A1.525,1.525,0,0,0,.6,4.55a1.476,1.476,0,0,0,.135.636,1.494,1.494,0,0,0,.362.486,1.639,1.639,0,0,0,.536.31,1.91,1.91,0,0,0,.653.108H6.166v.935H2.287A2.442,2.442,0,0,1,1.4,6.867a1.886,1.886,0,0,1-.727-.5A2.449,2.449,0,0,1,.182,5.5,3.94,3.94,0,0,1,0,4.229,3.482,3.482,0,0,1,.182,3.055a2.47,2.47,0,0,1,.5-.853,2.072,2.072,0,0,1,.731-.516A2.267,2.267,0,0,1,2.3,1.51Z" transform="translate(0 -1.51)"/><path class="a" d="M6.331,35.272v.948L2.5,39.659H6.333v.926H.21V39.95l4.235-3.74H.3V35.27H6.331Z" transform="translate(-0.164 -27.945)"/><path class="a" d="M6.652,68.12V69.6H.62V68.12Z" transform="translate(-0.485 -53.668)"/><path class="a" d="M6.331,81.62,2.163,83.614l4.17,1.851v.948L.21,83.7v-.69L6.333,80.09l0,1.53Z" transform="translate(-0.164 -63.041)"/><path class="a" d="M6.652,118.856H6.135V115.83H4.146v2.515H3.631V115.83H1.238v3.027H.62V114.35H6.654v4.506Z" transform="translate(-0.485 -89.868)"/><path class="a" d="M6.636,140.86v2.269a3.9,3.9,0,0,1-.122,1.026,2.105,2.105,0,0,1-.343.729,1.434,1.434,0,0,1-.523.438,1.493,1.493,0,0,1-.66.148,1.206,1.206,0,0,1-.488-.1,1.558,1.558,0,0,1-.423-.28,1.838,1.838,0,0,1-.343-.436,2.807,2.807,0,0,1-.247-.562L.6,146.243v-1.61l2.727-2.024v-.262H.6v-1.482H6.636Zm-2.775,1.482v.321a1.632,1.632,0,0,0,.076.5,1.174,1.174,0,0,0,.217.4.967.967,0,0,0,.345.265,1.093,1.093,0,0,0,.462.1,1.242,1.242,0,0,0,.44-.074,1.062,1.062,0,0,0,.345-.2.931.931,0,0,0,.226-.312.962.962,0,0,0,.08-.4v-.6Z" transform="translate(-0.47 -110.626)"/><path class="a" d="M.21,171.148a3.274,3.274,0,0,1,.126-.95,2.184,2.184,0,0,1,.349-.692,1.688,1.688,0,0,1,.532-.453,2.133,2.133,0,0,1,.679-.232v1.028a1.7,1.7,0,0,0-.423.156,1.258,1.258,0,0,0-.341.26,1.181,1.181,0,0,0-.228.373,1.364,1.364,0,0,0-.082.5,1.8,1.8,0,0,0,.039.371,1.021,1.021,0,0,0,.13.332.725.725,0,0,0,.236.236.673.673,0,0,0,.358.089.831.831,0,0,0,.475-.139,1.542,1.542,0,0,0,.38-.365,3.55,3.55,0,0,0,.319-.516c.1-.193.2-.391.3-.592s.2-.4.315-.592a3.094,3.094,0,0,1,.367-.516,1.664,1.664,0,0,1,.458-.365,1.224,1.224,0,0,1,.586-.139,1.417,1.417,0,0,1,.666.158,1.552,1.552,0,0,1,.529.456,2.258,2.258,0,0,1,.351.729,3.5,3.5,0,0,1,.126.983,2.576,2.576,0,0,1-.124.822,2.145,2.145,0,0,1-.345.651,2.055,2.055,0,0,1-.516.473,2.509,2.509,0,0,1-.634.293v-.931a3.2,3.2,0,0,0,.41-.187,1.372,1.372,0,0,0,.343-.263,1.183,1.183,0,0,0,.234-.378,1.44,1.44,0,0,0,.087-.529,1.39,1.39,0,0,0-.076-.488.913.913,0,0,0-.193-.319.7.7,0,0,0-.263-.174.842.842,0,0,0-.282-.054.719.719,0,0,0-.436.143,1.672,1.672,0,0,0-.365.375,4.055,4.055,0,0,0-.323.532c-.1.2-.206.4-.31.607s-.213.408-.328.607a3.307,3.307,0,0,1-.375.532,1.794,1.794,0,0,1-.453.375,1.1,1.1,0,0,1-.56.143,1.555,1.555,0,0,1-.686-.152,1.569,1.569,0,0,1-.549-.449,2.218,2.218,0,0,1-.367-.742A3.493,3.493,0,0,1,.21,171.148Z" transform="translate(-0.164 -132.52)"/><path class="a" d="M6.652,198v1.478H.62V198Z" transform="translate(-0.485 -155.369)"/><path class="a" d="M6.636,213.152v2.189a5.745,5.745,0,0,1-.2,1.553,3.691,3.691,0,0,1-.577,1.219,2.659,2.659,0,0,1-.931.794,2.72,2.72,0,0,1-1.258.282,2.988,2.988,0,0,1-1.2-.241,2.8,2.8,0,0,1-.976-.7,3.338,3.338,0,0,1-.66-1.133,4.547,4.547,0,0,1-.241-1.54V213.15H6.636Zm-5.413,1.482v.788a2.118,2.118,0,0,0,.161.82,1.936,1.936,0,0,0,.471.675,2.212,2.212,0,0,0,.766.456,3.014,3.014,0,0,0,1.041.167,2.716,2.716,0,0,0,.942-.158,2.336,2.336,0,0,0,.751-.438,2,2,0,0,0,.677-1.523v-.788l-4.808,0Z" transform="translate(-0.47 -167.232)"/><path class="a" d="M6.777,246.612.62,249.441v-1.512l1.647-.757v-2.345L.62,244.035v-1l6.157,2.942Zm-3.951-1.5v1.816l1.948-.894Z" transform="translate(-0.485 -190.629)"/><path class="a" d="M6.636,277.842v2.189a5.745,5.745,0,0,1-.2,1.553,3.692,3.692,0,0,1-.577,1.219,2.659,2.659,0,0,1-.931.794,2.721,2.721,0,0,1-1.258.282,2.988,2.988,0,0,1-1.2-.241,2.8,2.8,0,0,1-.976-.7,3.338,3.338,0,0,1-.66-1.133,4.547,4.547,0,0,1-.241-1.54V277.84H6.636Zm-5.413,1.482v.788a2.118,2.118,0,0,0,.161.82,1.937,1.937,0,0,0,.471.675,2.211,2.211,0,0,0,.766.456,3.013,3.013,0,0,0,1.041.167,2.715,2.715,0,0,0,.942-.158,2.335,2.335,0,0,0,.751-.438,2,2,0,0,0,.677-1.523v-.788H1.223Z" transform="translate(-0.47 -217.886)"/></g><g transform="translate(87.205 0.184)"><path class="a" d="M402.61,282.818v-2.189a5.744,5.744,0,0,1,.2-1.553,3.692,3.692,0,0,1,.577-1.219,2.662,2.662,0,0,1,.931-.794,2.722,2.722,0,0,1,1.258-.282,2.989,2.989,0,0,1,1.2.241,2.777,2.777,0,0,1,.976.7,3.3,3.3,0,0,1,.66,1.132,4.558,4.558,0,0,1,.241,1.541v2.426H402.61Zm5.416-1.482v-.788a2.117,2.117,0,0,0-.161-.82,1.936,1.936,0,0,0-.471-.675,2.212,2.212,0,0,0-.766-.456,3.015,3.015,0,0,0-1.041-.167,2.715,2.715,0,0,0-.942.158,2.337,2.337,0,0,0-.751.438,2,2,0,0,0-.677,1.523v.788h4.808Z" transform="translate(-402.463 -217.241)"/><path class="a" d="M402.61,244.22h.516v3.027h1.99v-2.515h.516v2.515h2.393V244.22h.618v4.509H402.61V244.22Z" transform="translate(-402.463 -191.745)"/><path class="a" d="M405.089,196.14a2.792,2.792,0,0,0,1.037-.178,2.315,2.315,0,0,0,.755-.471,1.94,1.94,0,0,0,.462-.677,2.093,2.093,0,0,0,.158-.8,1.6,1.6,0,0,0-.108-.59,2.05,2.05,0,0,0-.3-.512,3.1,3.1,0,0,0-.432-.447c-.163-.139-.334-.273-.516-.4l.453-.618a4.06,4.06,0,0,1,.618.484,3.447,3.447,0,0,1,.525.634,3.31,3.31,0,0,1,.362.766,2.776,2.776,0,0,1,.135.877,4.341,4.341,0,0,1-.228,1.434,3.418,3.418,0,0,1-.64,1.133,2.922,2.922,0,0,1-.994.742,3.063,3.063,0,0,1-1.293.267,3.109,3.109,0,0,1-1.267-.254,2.956,2.956,0,0,1-1-.714,3.34,3.34,0,0,1-.657-1.1,4.08,4.08,0,0,1-.236-1.421,3.546,3.546,0,0,1,.121-.952,3.2,3.2,0,0,1,.339-.785,2.905,2.905,0,0,1,.516-.631,3.949,3.949,0,0,1,.662-.493l.436.623a5,5,0,0,0-.512.417,3.319,3.319,0,0,0-.421.477,2.349,2.349,0,0,0-.284.534,1.665,1.665,0,0,0-.1.584,2.044,2.044,0,0,0,.156.79,1.907,1.907,0,0,0,.46.662,2.245,2.245,0,0,0,.755.453A2.922,2.922,0,0,0,405.089,196.14Z" transform="translate(-401.93 -150.408)"/><path class="a" d="M405.769,159.235h2.875v1.482H402.61v-1.482h2.643v-2.426H402.61V155.34h6.034v1.469h-2.875Z" transform="translate(-402.463 -122.149)"/><path class="a" d="M402.61,137.448V135.97h6.034v1.478Z" transform="translate(-402.463 -106.981)"/><path class="a" d="M402.03,99.9l6.157-2.829v1.512l-1.647.757v2.345l1.647.792v1l-6.157-2.942Zm3.953,1.5V99.587l-1.948.894Z" transform="translate(-402.008 -76.521)"/><path class="a" d="M402.61,71.266v-2.1a4.02,4.02,0,0,1,.106-.95,2.447,2.447,0,0,1,.321-.77,1.624,1.624,0,0,1,.531-.514,1.426,1.426,0,0,1,.74-.187,1.46,1.46,0,0,1,.746.184,1.664,1.664,0,0,1,.532.49,2.167,2.167,0,0,1,.319.694,3.079,3.079,0,0,1,.1.8v.872h2.634v1.486Zm2.851-1.486v-.486a.992.992,0,0,0-.091-.44.9.9,0,0,0-.249-.312,1.084,1.084,0,0,0-.362-.187,1.484,1.484,0,0,0-.432-.063,1.314,1.314,0,0,0-.479.082,1.048,1.048,0,0,0-.354.223.944.944,0,0,0-.219.33,1.1,1.1,0,0,0-.076.408v.445Z" transform="translate(-402.463 -52.772)"/><path class="a" d="M402.03,35.439l6.157-2.829v1.512l-1.647.757v2.345l1.647.792v1l-6.157-2.942Zm3.953,1.5V35.127l-1.948.894Z" transform="translate(-402.008 -26.047)"/><path class="a" d="M408.3,4.721a3.276,3.276,0,0,1-.126.95,2.183,2.183,0,0,1-.349.692,1.688,1.688,0,0,1-.532.453,2.132,2.132,0,0,1-.679.232V6.02a1.7,1.7,0,0,0,.423-.156,1.253,1.253,0,0,0,.341-.26,1.178,1.178,0,0,0,.228-.373,1.363,1.363,0,0,0,.083-.5,1.8,1.8,0,0,0-.039-.371,1.019,1.019,0,0,0-.13-.332.723.723,0,0,0-.237-.236.673.673,0,0,0-.358-.089.831.831,0,0,0-.475.139,1.541,1.541,0,0,0-.38.365,3.547,3.547,0,0,0-.319.516c-.1.193-.2.391-.3.592s-.2.4-.315.592a3.1,3.1,0,0,1-.367.516,1.662,1.662,0,0,1-.458.365,1.223,1.223,0,0,1-.586.139,1.416,1.416,0,0,1-.666-.158,1.551,1.551,0,0,1-.529-.456,2.258,2.258,0,0,1-.352-.729,3.5,3.5,0,0,1-.126-.983,2.576,2.576,0,0,1,.124-.822,2.145,2.145,0,0,1,.345-.651,2.058,2.058,0,0,1,.516-.473,2.511,2.511,0,0,1,.634-.293v.931a3.2,3.2,0,0,0-.41.187,1.37,1.37,0,0,0-.343.263,1.182,1.182,0,0,0-.234.378,1.441,1.441,0,0,0-.087.529,1.39,1.39,0,0,0,.076.488.913.913,0,0,0,.193.319.7.7,0,0,0,.263.174.842.842,0,0,0,.282.054.72.72,0,0,0,.436-.143,1.673,1.673,0,0,0,.365-.375,4.047,4.047,0,0,0,.323-.532c.1-.2.206-.4.31-.608s.213-.408.328-.608a3.294,3.294,0,0,1,.375-.532,1.793,1.793,0,0,1,.453-.375,1.1,1.1,0,0,1,.56-.143,1.523,1.523,0,0,1,1.235.6,2.216,2.216,0,0,1,.367.742A3.489,3.489,0,0,1,408.3,4.721Z" transform="translate(-402.032 -2.36)"/></g><path class="a" d="M174.007,41.5a3.345,3.345,0,0,1-2.625-2.428l-.043-.161h-25.7l-.043.161a3.342,3.342,0,0,1-2.625,2.428l-.178.033V53.1l.178.033a3.325,3.325,0,0,1,2.653,2.547l.039.167h25.652l.039-.167A3.328,3.328,0,0,1,174,53.13l.178-.033V41.529Zm-.25,11.237a3.755,3.755,0,0,0-2.777,2.671H146a3.755,3.755,0,0,0-2.777-2.671V41.889a3.781,3.781,0,0,0,2.74-2.545h25.057a3.78,3.78,0,0,0,2.74,2.545V52.735Z" transform="translate(-111.81 -30.796)"/><path class="a" d="M170.526,36.02a3.73,3.73,0,0,1-2.847-2.805l-.046-.184H139.745l-.046.184a3.73,3.73,0,0,1-2.847,2.805l-.193.037V49.422l.193.037a3.721,3.721,0,0,1,2.879,2.942l.041.193h27.832l.041-.193a3.72,3.72,0,0,1,2.879-2.942l.193-.037V36.057Zm-.271,12.985a4.2,4.2,0,0,0-3.014,3.087h-27.1a4.2,4.2,0,0,0-3.014-3.087V36.471a4.213,4.213,0,0,0,2.972-2.942h27.186a4.217,4.217,0,0,0,2.972,2.942Z" transform="translate(-107.01 -26.191)"/><path class="a" d="M165.413,40.663l-.4-.605a22.052,22.052,0,0,0-36.867,0l-.4.605V10.607a4.339,4.339,0,0,1,4.335-4.335h7.455a2.111,2.111,0,0,0,2.109-2.109V2h9.865V4.165a2.111,2.111,0,0,0,2.109,2.109h7.305a4.489,4.489,0,0,1,4.485,4.485v29.9Zm-18.83-10.987a22.436,22.436,0,0,1,18.4,9.557V10.757a4.055,4.055,0,0,0-4.051-4.051h-7.305a2.546,2.546,0,0,1-2.543-2.543V2.434h-9V4.165a2.546,2.546,0,0,1-2.543,2.543h-7.455a3.905,3.905,0,0,0-3.9,3.9V39.236A22.434,22.434,0,0,1,146.583,29.676Z" transform="translate(-100.033 -1.894)"/><path class="b" d="M155.543,50.91h-1.6l.024,8.436s-.054,3.181,2.083,3.254,2.1-3.424,2.1-3.424l.019-8.266-.579.017v8.232s.017,2.181-1.089,2.178c-.974.1-.948-2.026-.948-2.026Z" transform="translate(-120.54 -40.192)"/><path class="b" d="M180.31,50.91V62.4h.568V55.152l2.263,7.244h1.241V50.91l-.514,0-.026,7.77-2.508-7.772Z" transform="translate(-141.189 -40.192)"/><path class="b" d="M233.417,57.513a18.353,18.353,0,0,1-.082,1.938c-.321,2.588-2.113,2.493-2.113,2.493s-1.6.126-2.115-2.716a17.944,17.944,0,0,1,.124-6.413s.421-2.712,2.28-2.745,1.686,3.6,1.686,3.6l-.662.662s.206-3.155-.848-3.328-1.1,3.376-1.1,3.376a41.879,41.879,0,0,0,.069,4.452c.169,1.031.386,2.38,1.221,2.141s1.039-2.647.837-3.825Z" transform="translate(-179.213 -39.533)"/><path class="b" d="M206.765,50.91h-1.434L203.71,62.394h.913l.193-1.38h1.41l.252,1.38h1.807Zm-1.89,9.5.668-6.609.683,6.609Z" transform="translate(-159.512 -40.192)"/><path class="b" d="M257.448,50.91H255.89V62.4h1.558V57.041h2.122V62.4h.792V50.91h-.792v5.559h-2.122Z" transform="translate(-200.371 -40.192)"/><ellipse class="a" cx="0.512" cy="0.512" rx="0.512" ry="0.512" transform="translate(43.642 15.691)"/><ellipse class="a" cx="0.512" cy="0.512" rx="0.512" ry="0.512" transform="translate(48.266 15.691)"/><g transform="translate(27.839 30.402)"><path class="a" d="M146.01,171.474a4.822,4.822,0,0,1,.493-.686,1.354,1.354,0,0,1,.762-.525.851.851,0,0,1,.7.2.913.913,0,0,1,.358.64,1.332,1.332,0,0,1-.365.939,1.647,1.647,0,0,1-.187.2l.872.731-.351.419Zm1.43.484a1.121,1.121,0,0,0,.189-.191c.265-.317.271-.638,0-.866s-.545-.152-.79.141a1.7,1.7,0,0,0-.184.26Z" transform="translate(-142.17 -164.041)"/><path class="a" d="M159.622,160.418a1.428,1.428,0,0,1-.089,2.15,1.4,1.4,0,0,1-2.052-.286,1.445,1.445,0,0,1,.085-2.133A1.394,1.394,0,0,1,159.622,160.418Zm-1.7,1.482c.395.471.944.647,1.35.308s.323-.913-.082-1.4c-.364-.436-.926-.668-1.349-.315S157.522,161.423,157.924,161.9Z" transform="translate(-150.818 -155.865)"/><path class="a" d="M168.43,152.474a5.168,5.168,0,0,1,.692-.469,1.4,1.4,0,0,1,.929-.252.76.76,0,0,1,.525.4.807.807,0,0,1-.1.929l.006.011a.769.769,0,0,1,.655.3,6.239,6.239,0,0,0,.625.614l-.495.282a4.391,4.391,0,0,1-.529-.519c-.269-.3-.456-.338-.733-.191l-.241.139.616,1.078-.475.271Zm1.137.887.284-.163c.323-.184.427-.471.278-.731-.165-.289-.443-.3-.753-.126a1.49,1.49,0,0,0-.282.193Z" transform="translate(-159.725 -149.548)"/><path class="a" d="M185.51,145.9l.525-.167.77,2.441,1.185-.373.139.44-1.71.54Z" transform="translate(-173.1 -144.841)"/><path class="a" d="M199.147,144.325l-.132.885-.564.082.521-3.131.7-.1,1.408,2.849-.586.087-.395-.807Zm.8-.536-.343-.7c-.085-.174-.163-.371-.232-.536l-.009,0c-.02.18-.033.395-.061.579l-.124.77Z" transform="translate(-183.232 -141.967)"/><path class="a" d="M218.955,144.675a1.887,1.887,0,0,1-.79.065,1.427,1.427,0,0,1-1.4-1.649,1.52,1.52,0,0,1,1.747-1.449,1.754,1.754,0,0,1,.72.2l-.158.427a1.45,1.45,0,0,0-.579-.167,1.006,1.006,0,0,0-1.15,1.015.992.992,0,0,0,.955,1.178,1.543,1.543,0,0,0,.608-.059Z" transform="translate(-197.564 -141.634)"/><path class="a" d="M231.94,145.78a1.429,1.429,0,0,1-1.809,1.163,1.4,1.4,0,0,1-.946-1.844,1.448,1.448,0,0,1,1.794-1.159A1.394,1.394,0,0,1,231.94,145.78Zm-2.189-.54c-.158.592.013,1.146.525,1.282s.933-.26,1.1-.872c.148-.549.013-1.143-.519-1.284S229.911,144.639,229.751,145.24Z" transform="translate(-207.245 -143.399)"/><path class="a" d="M242.14,150.474l1.33-2.714.564.276.13,1.506a8.366,8.366,0,0,1,.017,1.137l.009,0c.145-.378.306-.733.508-1.15l.464-.946.46.226-1.33,2.714-.512-.249-.124-1.538a10.7,10.7,0,0,1-.028-1.176l-.013,0c-.152.36-.323.72-.542,1.167l-.475.97Z" transform="translate(-217.443 -146.431)"/><path class="a" d="M257.693,160.777a1.877,1.877,0,0,1-.707-.354,1.425,1.425,0,0,1-.343-2.137,1.519,1.519,0,0,1,2.243-.332,1.711,1.711,0,0,1,.512.542l-.358.282a1.5,1.5,0,0,0-.408-.445,1.007,1.007,0,0,0-1.51.269.992.992,0,0,0,.2,1.5,1.533,1.533,0,0,0,.551.265Z" transform="translate(-228.535 -154.138)"/><path class="a" d="M266.469,164.408l-2.068,2.2-.4-.377,2.068-2.2Z" transform="translate(-234.56 -159.171)"/><path class="a" d="M270.145,171.328l-.738-.868-.677.575.827.97-.345.293-1.182-1.389,2.3-1.959,1.139,1.339-.345.293-.781-.918-.595.506.738.868Z" transform="translate(-237.716 -163.023)"/><path class="a" d="M274.79,180.5l2.593-1.549.321.538-.712,1.334a8.083,8.083,0,0,1-.605.961l0,.009c.328-.239.655-.449,1.052-.686l.9-.54.263.438-2.593,1.549-.291-.488.733-1.356a10.473,10.473,0,0,1,.618-1l-.011-.009c-.323.219-.664.427-1.091.683l-.926.553Z" transform="translate(-243.009 -170.854)"/><path class="a" d="M283.576,197.242a1.908,1.908,0,0,1-.4-.683,1.426,1.426,0,0,1,.879-1.979,1.519,1.519,0,0,1,2.061.948,1.729,1.729,0,0,1,.132.736l-.454.041a1.45,1.45,0,0,0-.1-.594,1.006,1.006,0,0,0-1.412-.6.992.992,0,0,0-.649,1.369,1.538,1.538,0,0,0,.317.523Z" transform="translate(-249.475 -182.997)"/><path class="a" d="M288.576,206.876l-2.935.712-.13-.536,2.936-.712Z" transform="translate(-251.403 -192.301)"/><path class="a" d="M287.682,214.671l-.879-.165-.063-.566,3.109.634.076.7-2.9,1.3-.065-.588.822-.364Zm.508.814.714-.317c.176-.078.375-.15.545-.213v-.009c-.178-.026-.393-.048-.577-.08l-.766-.152Z" transform="translate(-252.366 -198.252)"/><path class="a" d="M290.3,232.831a5.754,5.754,0,0,1-.056.879,1.842,1.842,0,0,1-.512,1.174,1.354,1.354,0,0,1-1.165.317,1.56,1.56,0,0,1-1.126-.629,2.015,2.015,0,0,1-.224-1.41,5.721,5.721,0,0,1,.141-.731Zm-2.61.2a2.039,2.039,0,0,0-.054.3,1.035,1.035,0,0,0,.992,1.289.959.959,0,0,0,1.185-.92,1.809,1.809,0,0,0,.02-.377Z" transform="translate(-252.715 -212.73)"/><path class="a" d="M284.457,248.246l.343-1.085-.846-.267-.382,1.213-.432-.137.549-1.74,2.881.909-.527,1.675-.432-.137.362-1.15-.744-.234-.343,1.085Z" transform="translate(-249.547 -223.536)"/><path class="a" d="M279.843,261.868l-.269.482-2.233-1.252-.608,1.083-.4-.226.877-1.564Z" transform="translate(-244.215 -234.624)"/><path class="a" d="M270.125,269.61l-.508-.735.354-.445,1.764,2.636-.438.551-2.977-1.111.369-.462.84.319Zm-.213.935.731.278c.18.069.373.158.536.232l.006-.007c-.108-.143-.245-.31-.354-.464l-.438-.644Z" transform="translate(-237.943 -240.92)"/><path class="a" d="M256.926,282.39l1.84,2.4-.5.382-1.408-.551a8.485,8.485,0,0,1-1.026-.488l-.007.006c.273.3.523.6.8.966l.642.835-.406.312-1.84-2.4.451-.347,1.434.571a10.433,10.433,0,0,1,1.068.5l.009-.011c-.256-.3-.5-.61-.8-1l-.657-.857Z" transform="translate(-227.536 -251.851)"/><path class="a" d="M245.876,292.5l1.007-.534-.417-.783-1.124.6-.213-.4,1.612-.855,1.415,2.669-1.551.822-.213-.4,1.065-.564-.365-.69-1,.534Z" transform="translate(-219.784 -258.225)"/><path class="a" d="M233.84,297.209a1.869,1.869,0,0,1,.694-.38,1.426,1.426,0,0,1,1.953.935,1.519,1.519,0,0,1-1.007,2.033,1.725,1.725,0,0,1-.738.111l-.028-.456a1.444,1.444,0,0,0,.6-.082,1,1,0,0,0,.638-1.4.992.992,0,0,0-1.35-.688,1.555,1.555,0,0,0-.532.3Z" transform="translate(-210.944 -263.073)"/><path class="a" d="M223.725,300.612l1.122-.2-.154-.874-1.254.221-.078-.445,1.8-.317.525,2.975-1.729.306-.078-.445,1.187-.208-.134-.768-1.122.2Z" transform="translate(-202.738 -264.857)"/><path class="a" d="M214.7,301.14a1.522,1.522,0,0,0-.736-.171c-.354.011-.547.182-.538.427.007.228.163.358.551.486.5.165.829.419.842.855.015.493-.386.881-1.041.9a1.618,1.618,0,0,1-.731-.13l.122-.447a1.286,1.286,0,0,0,.605.126c.349-.011.5-.2.49-.378-.007-.232-.184-.336-.592-.479-.529-.182-.794-.438-.8-.872-.015-.484.341-.916,1.12-.939a1.768,1.768,0,0,1,.82.165Z" transform="translate(-194.522 -266.045)"/><path class="a" d="M206.71,303.439l.245-3.009.549.046-.245,3.009Z" transform="translate(-189.7 -265.977)"/><path class="a" d="M193.787,302.245a5.743,5.743,0,0,1-.872-.126,1.844,1.844,0,0,1-1.128-.605,1.349,1.349,0,0,1-.221-1.187,1.568,1.568,0,0,1,.716-1.072,2.021,2.021,0,0,1,1.423-.111,6.067,6.067,0,0,1,.718.2Zm.011-2.617a1.889,1.889,0,0,0-.3-.078,1.036,1.036,0,0,0-1.365.885.958.958,0,0,0,.822,1.254,1.737,1.737,0,0,0,.375.05Z" transform="translate(-177.806 -264.913)"/><path class="a" d="M181.7,294.247l.571-.688.525.221-2.063,2.408-.649-.273.267-3.166.545.23-.08.9Zm-.959.048-.069.779c-.017.191-.052.4-.078.579l.009,0c.108-.143.232-.321.352-.464l.5-.6Z" transform="translate(-168.848 -259.963)"/><path class="a" d="M166.189,291.251a5.666,5.666,0,0,1-.768-.432,1.83,1.83,0,0,1-.835-.97,1.348,1.348,0,0,1,.219-1.187,1.574,1.574,0,0,1,1.054-.744,2.01,2.01,0,0,1,1.369.41,6.068,6.068,0,0,1,.6.443Zm.95-2.441a2.116,2.116,0,0,0-.247-.18,1.034,1.034,0,0,0-1.59.336.957.957,0,0,0,.317,1.464,1.881,1.881,0,0,0,.332.182Z" transform="translate(-156.671 -256.169)"/><path class="a" d="M150.358,278.2a5.388,5.388,0,0,1-.636-.61,1.843,1.843,0,0,1-.568-1.148,1.348,1.348,0,0,1,.508-1.094,1.564,1.564,0,0,1,1.206-.456,2.02,2.02,0,0,1,1.224.738,5.986,5.986,0,0,1,.469.579Zm1.527-2.124a1.97,1.97,0,0,0-.2-.234,1.036,1.036,0,0,0-1.625-.072.956.956,0,0,0-.059,1.5,1.655,1.655,0,0,0,.275.258Z" transform="translate(-144.63 -245.978)"/><path class="a" d="M141.161,264.053l.612.961.749-.477-.683-1.074.382-.243.981,1.538-2.547,1.623-.944-1.482.382-.243.647,1.018.657-.419-.612-.961Z" transform="translate(-137.237 -236.84)"/><path class="a" d="M135.716,252.088a1.5,1.5,0,0,0-.076-.751c-.124-.332-.349-.458-.579-.371-.215.08-.286.269-.282.679.007.529-.13.92-.538,1.072a.937.937,0,0,1-1.189-.694,1.571,1.571,0,0,1-.111-.733l.462-.03a1.256,1.256,0,0,0,.076.612c.122.328.351.4.516.343.219-.082.258-.282.263-.716,0-.56.158-.892.566-1.044.453-.169.976.026,1.25.757a1.8,1.8,0,0,1,.108.831Z" transform="translate(-131.93 -226.8)"/><path class="a" d="M131.148,239.284l.239,1.113.868-.187-.267-1.245.443-.1.382,1.783-2.955.631-.367-1.718.443-.1.252,1.178.764-.163-.239-1.113Z" transform="translate(-129.234 -217.773)"/><path class="a" d="M128.619,229.184a5.136,5.136,0,0,1-.111-.829,1.39,1.39,0,0,1,.189-.944.769.769,0,0,1,.59-.3.806.806,0,0,1,.788.5h.013a.764.764,0,0,1,.558-.453,5.918,5.918,0,0,0,.829-.286l.033.568a4.227,4.227,0,0,1-.7.243c-.388.108-.506.258-.5.573l.015.278,1.239-.072.033.547Zm1.3-.623-.02-.328c-.022-.371-.232-.592-.532-.575-.332.02-.471.26-.449.618a1.766,1.766,0,0,0,.046.338Z" transform="translate(-128.46 -208.385)"/><path class="a" d="M131.417,214.663l-3.107.653.063-.6,1.408-.265c.391-.076.753-.137,1.128-.178v-.009c-.347-.117-.7-.265-1.054-.423l-1.326-.581.063-.584,2.892,1.358Z" transform="translate(-128.31 -197.265)"/><path class="a" d="M130.566,207.01l2.94.688-.126.536-2.94-.688Z" transform="translate(-129.978 -192.826)"/><path class="a" d="M132.34,196.483a5.287,5.287,0,0,1,.226-.8,1.409,1.409,0,0,1,.547-.794.765.765,0,0,1,.657-.037.8.8,0,0,1,.525.772l.013,0a.773.773,0,0,1,.692-.2,5.843,5.843,0,0,0,.872.065l-.2.534a4.186,4.186,0,0,1-.738-.054c-.4-.054-.566.037-.683.33l-.1.26,1.167.425-.187.514Zm1.441-.059.113-.308a.52.52,0,0,0-.26-.738c-.312-.113-.534.054-.657.391a1.557,1.557,0,0,0-.091.33Z" transform="translate(-131.466 -183.258)"/></g><path class="a" d="M163.43,162.04a14.321,14.321,0,1,0,14.322,14.322A14.336,14.336,0,0,0,163.43,162.04Zm2.795.495c-1.334,1.625-2.621,2.133-3.825,1.506-.037-.02-.067-.035-.087-.043a.737.737,0,0,1-.074-.035c-.265-.132-.762-.38-2.413.265-1.727.675-2.716.436-2.862.28a2.931,2.931,0,0,1-.332-.5,14.023,14.023,0,0,1,6.8-1.753A14.267,14.267,0,0,1,166.224,162.535Zm-9.783,1.584a3.164,3.164,0,0,0,.362.538,1.444,1.444,0,0,0,.97.245,5.963,5.963,0,0,0,2.131-.471c1.562-.61,2-.391,2.237-.273.033.015.063.03.089.041s.039.02.069.035c1.323.69,2.716.143,4.144-1.621l-.052-.043a14.159,14.159,0,0,1,9.972,8.167l-4.018.028v3.461h-2.43c-.039-.033-.076-.069-.115-.1a1.2,1.2,0,0,1-.375-.579c-.08-.284-.05-.588-.111-.877a1.453,1.453,0,0,0-.807-1.007c-.243-.111-.54-.169-.679-.4-.158-.256-.039-.61-.18-.874a.992.992,0,0,0-.6-.391,1.332,1.332,0,0,0-.532-.1,1.268,1.268,0,0,0-.486.184,11.4,11.4,0,0,0-2.68,1.794,5.172,5.172,0,0,1-1.05.937.293.293,0,0,1-.139.046.326.326,0,0,1-.187-.1l-.347-.3a1.262,1.262,0,0,1-.273-.3c-.1-.163-.184-.408-.371-.373-.076.015-.139.078-.215.072a.224.224,0,0,1-.126-.072,1.477,1.477,0,0,1-.219-1.805.482.482,0,0,0,.122-.323c-.026-.15-.206-.219-.358-.21a2.919,2.919,0,0,1-.451.046c-.384-.043-.625-.527-1.011-.516a.583.583,0,0,0-.5.449c-.065.23.072.506-.015.727a3.746,3.746,0,0,1-.282.549,1.9,1.9,0,0,1-.447.581,1.165,1.165,0,0,0-.2.167,1.134,1.134,0,0,0-.148.419,1.3,1.3,0,0,1-.51.679,2.854,2.854,0,0,1-.781.364,1.973,1.973,0,0,0-.5.208,4.462,4.462,0,0,1-.44.345c-.2.1-.434.091-.627.2-.137.072-.243.2-.384.26-.193.087-.436.054-.6.187-.193.154-.2.466-.382.629a.836.836,0,0,0-.182.66c0,.356-.017.712-.035,1.068,0,.056-.007.115-.009.171-.013.254-.026.508-.024.764a.753.753,0,0,0,.072.38c.1.182.351.3.349.508a.453.453,0,0,1-.082.224,3.454,3.454,0,0,1-.449.6.439.439,0,0,0-.1.132.223.223,0,0,0,0,.119,2.08,2.08,0,0,0-.851.256.782.782,0,0,1-.913.065,3.533,3.533,0,0,0-1.009-.236,14.091,14.091,0,0,1,6.769-15.331Zm6.988,26.346a14.124,14.124,0,0,1-13.708-10.794,3.272,3.272,0,0,1,.837.193,1,1,0,0,0,1.172-.08,2.2,2.2,0,0,1,.811-.217,1.317,1.317,0,0,0,.319.338c.111.078.291.126.365.011s-.043-.254-.148-.341c-.056-.046-.013-.122.059-.139a.313.313,0,0,1,.208.048,1.878,1.878,0,0,1,.67.573c-.126.156-.328-.234-.516-.167a.169.169,0,0,0-.054.249.533.533,0,0,0,.239.165,9.1,9.1,0,0,1,1.942,1.326q.928.762,1.857,1.521c.312.256.627.512.939.77a7.211,7.211,0,0,1,.581.512,7.4,7.4,0,0,1,.523.612l1.974,2.5a1.907,1.907,0,0,0,.54.523c.126.069.267.111.388.187a1.59,1.59,0,0,1,.308.271l1.1,1.152c.484-.727.25-1.712.514-2.543a.621.621,0,0,1,.226-.349,1.469,1.469,0,0,0,.2-.111.314.314,0,0,0,.1-.161c.128-.527-.844-.831-.731-1.36a.777.777,0,0,1,.208-.334l.97-1.083a30.113,30.113,0,0,0,2.055-2.953c2.775.059,5.617.015,8.392-.05a2.767,2.767,0,0,1,.022-.955.814.814,0,0,0,.017-.432c-.074-.2-.3-.291-.506-.356l-.586-.189a1.32,1.32,0,0,1-.345-.15,1.256,1.256,0,0,1-.325-.41c-.109-.184-.217-.369-.325-.555a1.73,1.73,0,0,0-.23-.33,1.647,1.647,0,0,0-.293-.226l-.976-.647a2.581,2.581,0,0,1-.449-.347c-.109-.113-.2-.243-.3-.364a4.365,4.365,0,0,0-.308-.325c-.334-.334-.664-.677-1.009-1h2.4v-3.461l3.895-.026a14.1,14.1,0,0,1-13.027,19.505Z" transform="translate(-116.758 -127.211)"/><g transform="translate(9.521 6.923)"><g transform="translate(0 8.155)"><path class="b" d="M74.021,209.61l.657.388c-.462,3.868-.64,6.967.341,10.252.479,1.606.842,3.294,2.131,4.368a61.183,61.183,0,0,1-.8-13.892,1.558,1.558,0,0,1,.681.28,48.1,48.1,0,0,0,.447,11.167c.449,2.8,1.263,5.747,3.393,7.622a25.68,25.68,0,0,1-3.994-3.487,14.726,14.726,0,0,1-3.144-8.082A42.424,42.424,0,0,1,74.021,209.61Z" transform="translate(-67.159 -179.538)"/><path class="b" d="M59.525,200.324a70.768,70.768,0,0,0-.445,7.7,16.82,16.82,0,0,0,1.892,7.416,14.826,14.826,0,0,1-4.12-7.921,27.972,27.972,0,0,1-.037-9.219c.141.085.434.3.575.384a39.2,39.2,0,0,0-.234,6.361,14.57,14.57,0,0,0,1.506,6.034c-.8-4.062.067-11.18.067-11.18Z" transform="translate(-53.724 -170.682)"/><path class="b" d="M46.736,200.648a38.409,38.409,0,0,1-.545-12.324,4.252,4.252,0,0,1-.4-.5,27.414,27.414,0,0,0-.169,8.679,18,18,0,0,1-.809-9.655c-.174-.193-.365-.386-.538-.577A20.416,20.416,0,0,0,46.736,200.648Z" transform="translate(-43.881 -161.262)"/><path class="b" d="M80.434,167.961a1.437,1.437,0,0,1,.4.1,26.846,26.846,0,0,0-.393,6.887,4.725,4.725,0,0,0,.488,2.026,4.936,4.936,0,0,1-1.731-2.089,8.761,8.761,0,0,1-.625-2.623,25.91,25.91,0,0,1,.089-5.005c.143.056.278.052.421.108-.171,1.226-.6,6.158.853,7.2A22.405,22.405,0,0,1,80.434,167.961Z" transform="translate(-70.98 -146.377)"/><path class="b" d="M68.694,161.666A36.02,36.02,0,0,0,68.3,167.7a8.883,8.883,0,0,0,.438,2.966,7.617,7.617,0,0,1-1.671-2.341c-.961-2.734-.59-5.511-.33-7.806a1.3,1.3,0,0,0,.332.187c.015-.011-.291,2.4-.256,3.6a8.357,8.357,0,0,0,.792,3.5c.074.15.135.282.21.43a28.23,28.23,0,0,1,.51-6.78A.888.888,0,0,1,68.694,161.666Z" transform="translate(-61.552 -141.099)"/><path class="b" d="M57.287,153.635a3.487,3.487,0,0,1,.3.265c-.167,2.233-.338,4.535-.3,6.774a4.754,4.754,0,0,0,.419,2.2,6.37,6.37,0,0,1-1.454-2.356,11.841,11.841,0,0,1-.5-2.656,23.049,23.049,0,0,1,.132-5.316,2.607,2.607,0,0,0,.384.36c-.054.4-.089.8-.139,1.193a11.582,11.582,0,0,0,.759,6.374A34.627,34.627,0,0,1,57.287,153.635Z" transform="translate(-53.099 -134.858)"/><path class="b" d="M46.053,142.92c.1.115.2.232.3.356-.009,1.156-.048,2.289-.056,3.445a12.974,12.974,0,0,0,.1,2.113,4.353,4.353,0,0,0,.59,1.994c-.009-1.026.007-2.009.069-3q.114-1.748.226-3.493a1.72,1.72,0,0,0,.406.417c-.082,1.534-.25,3.079-.25,4.617a9.918,9.918,0,0,0,.41,4.079,2.754,2.754,0,0,1-.95-1.124,14.178,14.178,0,0,1-1.009-6.042A24.152,24.152,0,0,1,46.053,142.92Z" transform="translate(-45.446 -127.317)"/><path class="b" d="M47.264,117.965a21.929,21.929,0,0,1-.3-6.921l-.391-.3a15.61,15.61,0,0,0-.03,5.472c-1.148-1.382-1.1-4.263-.937-6.424-.119-.126-.241-.258-.36-.384C44.946,111.829,44.734,116.082,47.264,117.965Z" transform="translate(-44.814 -101.078)"/><path class="b" d="M59.086,128.252c-.551-1.634-.171-5.476.119-6.583-.187-.106-.523-.354-.523-.354a28.865,28.865,0,0,0-.228,5.535c-1.5-2.28-.95-6.448-.95-6.448a2.72,2.72,0,0,0-.421-.312,12.755,12.755,0,0,0,1.048,6.993A3.117,3.117,0,0,0,59.086,128.252Z" transform="translate(-54.153 -109.441)"/><path class="b" d="M68.872,128.19l.3.221s-.545,4.584,1.05,6.123a32.265,32.265,0,0,1,.05-5.409,3.015,3.015,0,0,1,.588.2c-.293,1.742-.631,5.53.122,6.665C68.043,133.95,68.872,128.19,68.872,128.19Z" transform="translate(-63.365 -115.783)"/><path class="b" d="M80.356,134.42a.769.769,0,0,1,.347.158c-.063.84-.3,4.574.794,5.439a46.53,46.53,0,0,1,.165-4.951c.184.091.367.128.553.219.028.013-.577,4.472.052,6.587C79.59,139.694,80.276,135.757,80.356,134.42Z" transform="translate(-72.335 -120.662)"/><path class="b" d="M54.351,75.868a1.385,1.385,0,0,1-.579.3A2.548,2.548,0,0,1,51.8,75.44Q51,74.848,50.21,74.254c-1.248-.931-2.493-1.862-3.682-2.866a1.2,1.2,0,0,0-.768-.38.77.77,0,0,0-.581.36,2.018,2.018,0,0,0-.256.66c-.629,2.582-.165,7.019,2.228,8.637a12.24,12.24,0,0,1-.289-7.257.194.194,0,0,0-.048-.191,5.2,5.2,0,0,0-.421-.356,16.2,16.2,0,0,0-.336,5.537,6.576,6.576,0,0,1-.67-2.163,6.8,6.8,0,0,1,.25-3.942.377.377,0,0,1,.4-.213,1.445,1.445,0,0,1,.631.315,21.617,21.617,0,0,1,1.829,1.5,32.674,32.674,0,0,0,3.714,2.931c.2.135.4.26.608.375a1.4,1.4,0,0,0,.972.223.916.916,0,0,0,.618-.636A1.543,1.543,0,0,0,54.351,75.868Z" transform="translate(-44.497 -71.007)"/><path class="b" d="M55.841,82.659a.265.265,0,0,0-.074-.223,2.9,2.9,0,0,0-.2-.221.021.021,0,0,0-.033.015,6.442,6.442,0,0,0,.007,2.131,2.877,2.877,0,0,0,1.031,1.7.052.052,0,0,0,.08-.059,2.993,2.993,0,0,1,.007-1.636c.056-.258.121-.516.2-.77a.317.317,0,0,0-.1-.328c-.052-.046-.091-.1-.169-.163a.03.03,0,0,0-.05.011,7.843,7.843,0,0,0-.356,1.818.052.052,0,0,1-.1.011A5.18,5.18,0,0,1,55.841,82.659Z" transform="translate(-52.941 -79.779)"/><path class="b" d="M64.083,89.845l.117.089a.415.415,0,0,1,.126.506,2.653,2.653,0,0,0-.239,2.035.066.066,0,0,1-.1.08A2.616,2.616,0,0,1,62.923,91a5.343,5.343,0,0,1-.028-2.1.044.044,0,0,1,.069-.028l.158.119a.23.23,0,0,1,.087.232,3.558,3.558,0,0,0,.278,2.239.032.032,0,0,0,.061-.011A5.336,5.336,0,0,1,64,89.867.058.058,0,0,1,64.083,89.845Z" transform="translate(-58.698 -84.987)"/><path class="b" d="M71.783,95.953a2.9,2.9,0,0,1,.38.293.043.043,0,0,1,.015.035,2.71,2.71,0,0,0,.247,2.033.044.044,0,0,0,.08-.03,2.882,2.882,0,0,1,.28-1.51.045.045,0,0,1,.061-.022,1.145,1.145,0,0,1,.334.21.047.047,0,0,1,.013.046,3.3,3.3,0,0,0-.26,2.063.043.043,0,0,1-.067.048,3.073,3.073,0,0,1-1.113-1.382,2.884,2.884,0,0,1-.039-1.76A.047.047,0,0,1,71.783,95.953Z" transform="translate(-65.582 -90.535)"/><path class="b" d="M81.054,101.983l.284.137a.048.048,0,0,1,.028.05,2.073,2.073,0,0,0,.423,1.712.05.05,0,0,0,.082-.043,7.525,7.525,0,0,1,.043-1.341.05.05,0,0,1,.072-.039l.325.156a.047.047,0,0,1,.026.056,3.262,3.262,0,0,0,.106,2.055,2.86,2.86,0,0,1-1.256-1.161,2.931,2.931,0,0,1-.206-1.54A.05.05,0,0,1,81.054,101.983Z" transform="translate(-72.92 -95.259)"/><path class="b" d="M56.858,98.88l.367.332a4.609,4.609,0,0,0,1.052,3.526.019.019,0,0,0,.033-.015,8.305,8.305,0,0,1,.132-2.595c.148.076.315.208.462.286-.126.612-.5,2.949.213,3.743a3.116,3.116,0,0,1-1.465-1.386,6.638,6.638,0,0,1-.712-1.987A5.351,5.351,0,0,1,56.858,98.88Z" transform="translate(-54.003 -92.833)"/><path class="b" d="M68.665,107.9l.343.178s-.263,2.439.777,3.068a.039.039,0,0,0,.059-.039,9.96,9.96,0,0,1,.117-2.469,4.42,4.42,0,0,1,.453.236,7.381,7.381,0,0,0,.156,3.63C68.029,111.358,68.665,107.9,68.665,107.9Z" transform="translate(-63.232 -99.896)"/><path class="b" d="M79.057,113.5c.137.089.271.178.408.265a3.684,3.684,0,0,0,.952,3.024.017.017,0,0,0,.028-.017,7.027,7.027,0,0,1-.106-2.606s.375.169.558.236a6.488,6.488,0,0,0,.286,3.4,3.908,3.908,0,0,1-1.84-1.749A4.7,4.7,0,0,1,79.057,113.5Z" transform="translate(-71.375 -104.28)"/></g><g transform="translate(1.803 52.38)"><path class="b" d="M58.915,274.84l.471.462v6.476s.007.21.538.267,2.18.317,2.18.317a1.478,1.478,0,0,1,.751.312c.206.241-.148.438-.148.438a.456.456,0,0,1-.223.009,5.225,5.225,0,0,1-.69-.247,5.3,5.3,0,0,0-.579-.1c-.456-.054-.916-.085-1.376-.111-.18-.009-.36-.017-.54-.024-.263,0-.523.009-.785.022a12.422,12.422,0,0,0-1.577.163,5.067,5.067,0,0,0-.51.115,3.09,3.09,0,0,1-.74.221c-.2,0-.3-.1-.234-.3a.709.709,0,0,1,.054-.126c.156-.165.443-.464,2.977-.679.13-.02.473-.147.453-.477S58.915,274.84,58.915,274.84Z" transform="translate(-54.73 -274.84)"/><path class="b" d="M74.25,277.25v6.24s.041.256.464.338a10.471,10.471,0,0,0,1.107.1,7.19,7.19,0,0,1,1.443.228,1.69,1.69,0,0,1,.228.085c.139.065.206.184.373.143.223-.059.206-.267.117-.443-.25-.49-2.972-.621-2.972-.621s-.395.061-.462-.293-.054-5.541-.054-5.541Z" transform="translate(-69.464 -276.727)"/><path class="b" d="M57.109,306.276s-.21.124-.3.08c-.137-.091-.015-.36.6-.516s2.241-.267,2.4-.38c-.02.145.011.427-.545.473A10.793,10.793,0,0,0,57.109,306.276Z" transform="translate(-55.766 -298.817)"/><path class="b" d="M52.893,311.24a.313.313,0,0,0-.059.38.591.591,0,0,0-.644.059S52.216,311.322,52.893,311.24Z" transform="translate(-52.19 -303.343)"/><path class="b" d="M54.611,308.39a.262.262,0,0,0-.022.33.8.8,0,0,0-.6.2A.69.69,0,0,1,54.611,308.39Z" transform="translate(-53.599 -301.111)"/><path class="b" d="M90.2,310.78a.316.316,0,0,1,.022.384.588.588,0,0,1,.636.122S90.864,310.93,90.2,310.78Z" transform="translate(-81.953 -302.982)"/><path class="b" d="M92.18,308.33a.262.262,0,0,1,.022.33.8.8,0,0,1,.6.2A.69.69,0,0,0,92.18,308.33Z" transform="translate(-83.504 -301.064)"/></g><g transform="translate(0.577)"><path class="a" d="M74.853,74.1a3.4,3.4,0,0,1-1.812-1.139,1.385,1.385,0,0,0-.161-.178,1.791,1.791,0,0,0,.848,1.352,1.779,1.779,0,0,1-.809.258.674.674,0,0,1-.51-.121,1.764,1.764,0,0,0,.438.423,1.048,1.048,0,0,0,.349.145,1.255,1.255,0,0,0,.605-.065A1.934,1.934,0,0,0,74.853,74.1Z" transform="translate(-66.797 -64.24)"/><path class="a" d="M77.47,63.81a3.25,3.25,0,0,0,.453,1.1,1.492,1.492,0,0,0,.79.807,1.266,1.266,0,0,1-.829.156,2.117,2.117,0,0,1-.742-.3,1.389,1.389,0,0,1-.742-.924,1.965,1.965,0,0,0,1.161.523A1.556,1.556,0,0,1,77.47,63.81Z" transform="translate(-69.921 -57.216)"/><path class="a" d="M79.976,56.322a1.762,1.762,0,0,0,1.1.469,1.239,1.239,0,0,1-.38-.9,7.413,7.413,0,0,1-.028-1.2.582.582,0,0,0-.3.356,1.424,1.424,0,0,0,.009,1.007c-.013-.035-.41-.191-.466-.236a1.837,1.837,0,0,1-.352-.414A1.242,1.242,0,0,0,79.976,56.322Z" transform="translate(-72.395 -50.075)"/><path class="a" d="M69.415,66.807a1.48,1.48,0,0,1-.171.649,1.84,1.84,0,0,0,1.035-2.2,2.35,2.35,0,0,1-.514,1.159c.106-.128-.03-.553-.08-.686a1.163,1.163,0,0,0-.421-.573c-.1.128.1.594.124.768A4.25,4.25,0,0,1,69.415,66.807Z" transform="translate(-64.311 -58.274)"/><path class="a" d="M71.543,55.406a5.182,5.182,0,0,1,.21,1.028,2.384,2.384,0,0,0,.558-1.037,1.554,1.554,0,0,0-.165-1.148,3.027,3.027,0,0,1-.241,1.213c.054-.13-.217-.462-.3-.549a1.1,1.1,0,0,0-.54-.341c.02.126.165.236.236.347A2.238,2.238,0,0,1,71.543,55.406Z" transform="translate(-65.748 -49.731)"/><path class="a" d="M63.808,59.022a2.147,2.147,0,0,0,.89-.974,1.51,1.51,0,0,0-.033-1.3,7.053,7.053,0,0,1-.471,1.278,1.562,1.562,0,0,0-.714-1.2c.085.36.276.688.334,1.067C63.842,58.058,63.968,58.926,63.808,59.022Z" transform="translate(-59.804 -51.688)"/><path class="a" d="M61.138,70.057a1.2,1.2,0,0,0-.085-1.237,6.017,6.017,0,0,1,.013.655.739.739,0,0,0-.827-.3,1.537,1.537,0,0,1,.534.341C60.839,69.584,61.19,69.957,61.138,70.057Z" transform="translate(-57.267 -61.139)"/><path class="a" d="M83.26,49.16a1.742,1.742,0,0,1,.284.746,1.911,1.911,0,0,0,.052-.95,1.1,1.1,0,0,0-.558-.746,2.011,2.011,0,0,1,.2.553c-.035-.178-.508-.208-.568-.061A1.467,1.467,0,0,1,83.26,49.16Z" transform="translate(-74.831 -45.001)"/><path class="a" d="M82.206,42.633a1.74,1.74,0,0,1,.479.638,1.905,1.905,0,0,0-.215-.929,1.1,1.1,0,0,0-.744-.562,1.914,1.914,0,0,1,.345.477c-.082-.161-.545-.061-.562.1A1.47,1.47,0,0,1,82.206,42.633Z" transform="translate(-73.923 -39.966)"/><path class="a" d="M46.539,46.415a1.577,1.577,0,0,1,.963-.668,3.687,3.687,0,0,1,1.443-.135.86.86,0,0,1,.77.44,2.055,2.055,0,0,1-1.749.013c-.178-.087-.267,0-.26,0a1.085,1.085,0,0,0,.625.738,3.225,3.225,0,0,0,.972.239.806.806,0,0,0,1.08-.818.275.275,0,0,0,.007-.139.233.233,0,0,0-.067-.1,5.839,5.839,0,0,1-.716-.647c-.1-.143-.161-.312-.269-.449a.425.425,0,0,0-.456-.176,2.247,2.247,0,0,0-.2.126,1,1,0,0,1-.521.035,1.589,1.589,0,0,0-1.178.434A1.44,1.44,0,0,0,46.539,46.415Z" transform="translate(-46.539 -42.247)"/><path class="a" d="M67.007,43.1l-1.543.052a.87.87,0,0,1-.725-.219c.039.089.076.18.115.269a1.688,1.688,0,0,0,.744.66,1.565,1.565,0,0,0,.963.269,1.808,1.808,0,0,0,1.256-.864A1.222,1.222,0,0,0,67.007,43.1Zm-.5.9a1.153,1.153,0,0,1-1.087-.668c.059,0,.545.024.545.024s-.015.325.479.421a.443.443,0,0,0,.432-.434h.469A.971.971,0,0,1,66.508,44Z" transform="translate(-60.791 -40.867)"/><path class="a" d="M59.885,34.952s-.085-.792,1.05-.8,1.842,0,1.842,0a1.833,1.833,0,0,1,.909-.308s-.223.256-.165.369h1.534s.8-.286.961-.794c0,0,.3.512-.54.983,0,0,.8.037,1.035-.3,0,0,.15.642-1.556.768A48.321,48.321,0,0,0,59.885,34.952Z" transform="translate(-56.988 -33.42)"/><path class="a" d="M74.853,74.1a3.4,3.4,0,0,1-1.812-1.139,1.385,1.385,0,0,0-.161-.178,1.791,1.791,0,0,0,.848,1.352,1.779,1.779,0,0,1-.809.258.674.674,0,0,1-.51-.121,1.764,1.764,0,0,0,.438.423,1.048,1.048,0,0,0,.349.145,1.255,1.255,0,0,0,.605-.065A1.934,1.934,0,0,0,74.853,74.1Z" transform="translate(-66.797 -64.24)"/><path class="a" d="M77.47,63.81a3.25,3.25,0,0,0,.453,1.1,1.492,1.492,0,0,0,.79.807,1.266,1.266,0,0,1-.829.156,2.117,2.117,0,0,1-.742-.3,1.389,1.389,0,0,1-.742-.924,1.965,1.965,0,0,0,1.161.523A1.556,1.556,0,0,1,77.47,63.81Z" transform="translate(-69.921 -57.216)"/><path class="a" d="M79.976,56.322a1.762,1.762,0,0,0,1.1.469,1.239,1.239,0,0,1-.38-.9,7.413,7.413,0,0,1-.028-1.2.582.582,0,0,0-.3.356,1.424,1.424,0,0,0,.009,1.007c-.013-.035-.41-.191-.466-.236a1.837,1.837,0,0,1-.352-.414A1.242,1.242,0,0,0,79.976,56.322Z" transform="translate(-72.395 -50.075)"/><path class="a" d="M69.415,66.807a1.48,1.48,0,0,1-.171.649,1.84,1.84,0,0,0,1.035-2.2,2.35,2.35,0,0,1-.514,1.159c.106-.128-.03-.553-.08-.686a1.163,1.163,0,0,0-.421-.573c-.1.128.1.594.124.768A4.25,4.25,0,0,1,69.415,66.807Z" transform="translate(-64.311 -58.274)"/><path class="a" d="M71.543,55.406a5.182,5.182,0,0,1,.21,1.028,2.384,2.384,0,0,0,.558-1.037,1.554,1.554,0,0,0-.165-1.148,3.027,3.027,0,0,1-.241,1.213c.054-.13-.217-.462-.3-.549a1.1,1.1,0,0,0-.54-.341c.02.126.165.236.236.347A2.238,2.238,0,0,1,71.543,55.406Z" transform="translate(-65.748 -49.731)"/><path class="a" d="M63.808,59.022a2.147,2.147,0,0,0,.89-.974,1.51,1.51,0,0,0-.033-1.3,7.053,7.053,0,0,1-.471,1.278,1.562,1.562,0,0,0-.714-1.2c.085.36.276.688.334,1.067C63.842,58.058,63.968,58.926,63.808,59.022Z" transform="translate(-59.804 -51.688)"/><path class="a" d="M61.138,70.057a1.2,1.2,0,0,0-.085-1.237,6.017,6.017,0,0,1,.013.655.739.739,0,0,0-.827-.3,1.537,1.537,0,0,1,.534.341C60.839,69.584,61.19,69.957,61.138,70.057Z" transform="translate(-57.267 -61.139)"/><path class="a" d="M83.26,49.16a1.742,1.742,0,0,1,.284.746,1.911,1.911,0,0,0,.052-.95,1.1,1.1,0,0,0-.558-.746,2.011,2.011,0,0,1,.2.553c-.035-.178-.508-.208-.568-.061A1.467,1.467,0,0,1,83.26,49.16Z" transform="translate(-74.831 -45.001)"/><path class="a" d="M82.206,42.633a1.74,1.74,0,0,1,.479.638,1.905,1.905,0,0,0-.215-.929,1.1,1.1,0,0,0-.744-.562,1.914,1.914,0,0,1,.345.477c-.082-.161-.545-.061-.562.1A1.47,1.47,0,0,1,82.206,42.633Z" transform="translate(-73.923 -39.966)"/><path class="a" d="M46.539,46.415a1.577,1.577,0,0,1,.963-.668,3.687,3.687,0,0,1,1.443-.135.86.86,0,0,1,.77.44,2.055,2.055,0,0,1-1.749.013c-.178-.087-.267,0-.26,0a1.085,1.085,0,0,0,.625.738,3.225,3.225,0,0,0,.972.239.806.806,0,0,0,1.08-.818.275.275,0,0,0,.007-.139.233.233,0,0,0-.067-.1,5.839,5.839,0,0,1-.716-.647c-.1-.143-.161-.312-.269-.449a.425.425,0,0,0-.456-.176,2.247,2.247,0,0,0-.2.126,1,1,0,0,1-.521.035,1.589,1.589,0,0,0-1.178.434A1.44,1.44,0,0,0,46.539,46.415Z" transform="translate(-46.539 -42.247)"/><path class="a" d="M67.007,43.1l-1.543.052a.87.87,0,0,1-.725-.219c.039.089.076.18.115.269a1.688,1.688,0,0,0,.744.66,1.565,1.565,0,0,0,.963.269,1.808,1.808,0,0,0,1.256-.864A1.222,1.222,0,0,0,67.007,43.1Zm-.5.9a1.153,1.153,0,0,1-1.087-.668c.059,0,.545.024.545.024s-.015.325.479.421a.443.443,0,0,0,.432-.434h.469A.971.971,0,0,1,66.508,44Z" transform="translate(-60.791 -40.867)"/><path class="a" d="M59.885,34.952s-.085-.792,1.05-.8,1.842,0,1.842,0a1.833,1.833,0,0,1,.909-.308s-.223.256-.165.369h1.534s.8-.286.961-.794c0,0,.3.512-.54.983,0,0,.8.037,1.035-.3,0,0,.15.642-1.556.768A48.321,48.321,0,0,0,59.885,34.952Z" transform="translate(-56.988 -33.42)"/></g></g><ellipse class="a" cx="0.788" cy="0.788" rx="0.788" ry="0.788" transform="translate(30.625 39.572)"/><path class="b" d="M41.68,137.09" transform="translate(-32.637 -107.674)"/><g transform="translate(69.962 7.331)"><g transform="translate(0 8.157)"><path class="b" d="M329.31,211.5l-.657.388c.462,3.868.64,6.967-.341,10.252-.479,1.606-.842,3.294-2.131,4.368a61.179,61.179,0,0,0,.8-13.892,1.557,1.557,0,0,0-.681.28,48.1,48.1,0,0,1-.447,11.167c-.449,2.8-1.263,5.747-3.393,7.622a25.674,25.674,0,0,0,3.994-3.487,14.726,14.726,0,0,0,3.144-8.082A42.427,42.427,0,0,0,329.31,211.5Z" transform="translate(-322.46 -181.428)"/><path class="b" d="M353.7,202.214a70.773,70.773,0,0,1,.445,7.7,16.819,16.819,0,0,1-1.892,7.416,14.825,14.825,0,0,0,4.12-7.921,27.973,27.973,0,0,0,.037-9.219c-.141.085-.434.3-.575.384a39.2,39.2,0,0,1,.234,6.361,14.57,14.57,0,0,1-1.506,6.034c.8-4.062-.067-11.18-.067-11.18Z" transform="translate(-345.787 -172.572)"/><path class="b" d="M372.5,202.528a38.411,38.411,0,0,0,.545-12.324,4.24,4.24,0,0,0,.4-.5,27.414,27.414,0,0,1,.169,8.679,18,18,0,0,0,.809-9.655c.174-.193.365-.386.538-.577A20.416,20.416,0,0,1,372.5,202.528Z" transform="translate(-361.643 -163.144)"/><path class="b" d="M340.289,169.841a1.436,1.436,0,0,0-.4.1,26.846,26.846,0,0,1,.393,6.886,4.724,4.724,0,0,1-.488,2.026,4.936,4.936,0,0,0,1.731-2.089,8.762,8.762,0,0,0,.625-2.623,25.919,25.919,0,0,0-.089-5.005c-.143.056-.278.052-.421.108.171,1.226.6,6.157-.853,7.2A22.42,22.42,0,0,0,340.289,169.841Z" transform="translate(-336.03 -148.259)"/><path class="b" d="M352.568,163.556a36.017,36.017,0,0,1,.391,6.036,8.884,8.884,0,0,1-.438,2.966,7.614,7.614,0,0,0,1.671-2.341c.961-2.734.59-5.511.33-7.806a1.3,1.3,0,0,1-.332.187c-.015-.011.291,2.4.256,3.6a8.357,8.357,0,0,1-.792,3.5c-.074.15-.134.282-.211.43a28.232,28.232,0,0,0-.51-6.78A.889.889,0,0,0,352.568,163.556Z" transform="translate(-345.998 -142.989)"/><path class="b" d="M364.849,155.525a3.482,3.482,0,0,0-.3.265c.167,2.233.338,4.535.3,6.774a4.752,4.752,0,0,1-.419,2.2,6.37,6.37,0,0,0,1.454-2.356,11.839,11.839,0,0,0,.5-2.656,23.049,23.049,0,0,0-.132-5.316,2.61,2.61,0,0,1-.384.36c.054.4.089.8.139,1.193a11.582,11.582,0,0,1-.759,6.374A34.609,34.609,0,0,0,364.849,155.525Z" transform="translate(-355.324 -136.748)"/><path class="b" d="M376.4,144.8c-.1.115-.2.232-.3.356.009,1.156.048,2.289.056,3.445a12.968,12.968,0,0,1-.1,2.113,4.354,4.354,0,0,1-.59,1.994c.009-1.026-.007-2.009-.07-3q-.114-1.748-.226-3.493a1.719,1.719,0,0,1-.406.417c.082,1.534.25,3.079.25,4.617a9.918,9.918,0,0,1-.41,4.079,2.753,2.753,0,0,0,.95-1.124,14.179,14.179,0,0,0,1.009-6.042A24.164,24.164,0,0,0,376.4,144.8Z" transform="translate(-363.295 -129.2)"/><path class="b" d="M374.37,119.845a21.929,21.929,0,0,0,.295-6.921l.391-.3a15.607,15.607,0,0,1,.03,5.472c1.148-1.382,1.1-4.263.937-6.424.119-.126.241-.258.36-.384C376.687,113.709,376.9,117.964,374.37,119.845Z" transform="translate(-363.107 -102.96)"/><path class="b" d="M362.489,130.142c.551-1.634.171-5.476-.119-6.583.186-.106.523-.354.523-.354a28.867,28.867,0,0,1,.228,5.535c1.5-2.28.95-6.448.95-6.448a2.718,2.718,0,0,1,.421-.312,12.755,12.755,0,0,1-1.048,6.993A3.133,3.133,0,0,1,362.489,130.142Z" transform="translate(-353.711 -111.331)"/><path class="b" d="M352.653,130.07l-.3.221s.545,4.584-1.05,6.123a32.259,32.259,0,0,0-.05-5.409,3.018,3.018,0,0,0-.588.2c.293,1.742.631,5.53-.122,6.665C353.482,135.83,352.653,130.07,352.653,130.07Z" transform="translate(-344.448 -117.666)"/><path class="b" d="M341.792,136.31a.77.77,0,0,0-.347.158c.063.84.3,4.574-.794,5.439a46.519,46.519,0,0,0-.165-4.951c-.184.091-.367.128-.553.219-.028.013.577,4.472-.052,6.587C342.557,141.584,341.872,137.647,341.792,136.31Z" transform="translate(-336.1 -122.552)"/><path class="b" d="M339.871,77.758a1.386,1.386,0,0,0,.579.3,2.548,2.548,0,0,0,1.974-.727q.794-.592,1.588-1.187c1.248-.931,2.493-1.862,3.682-2.866a1.2,1.2,0,0,1,.768-.38.77.77,0,0,1,.581.36,2.017,2.017,0,0,1,.256.66c.629,2.582.165,7.019-2.228,8.637a12.24,12.24,0,0,0,.289-7.257.194.194,0,0,1,.048-.191,5.209,5.209,0,0,1,.421-.356,16.2,16.2,0,0,1,.336,5.537,6.577,6.577,0,0,0,.67-2.163,6.8,6.8,0,0,0-.249-3.942.377.377,0,0,0-.4-.213,1.445,1.445,0,0,0-.631.315,21.618,21.618,0,0,0-1.829,1.5,32.666,32.666,0,0,1-3.714,2.931c-.2.135-.4.26-.607.375a1.4,1.4,0,0,1-.972.223.916.916,0,0,1-.618-.636A1.542,1.542,0,0,1,339.871,77.758Z" transform="translate(-336.014 -72.897)"/><path class="b" d="M368.58,84.547a.265.265,0,0,1,.074-.223,2.825,2.825,0,0,1,.2-.219.021.021,0,0,1,.033.015,6.441,6.441,0,0,1-.006,2.131,2.877,2.877,0,0,1-1.031,1.7.052.052,0,0,1-.08-.059,2.994,2.994,0,0,0-.007-1.636c-.056-.258-.121-.516-.2-.77a.317.317,0,0,1,.1-.328c.052-.046.091-.1.169-.163a.03.03,0,0,1,.05.011,7.837,7.837,0,0,1,.356,1.818.052.052,0,0,0,.1.011A5.185,5.185,0,0,0,368.58,84.547Z" transform="translate(-357.769 -81.669)"/><path class="b" d="M359.823,91.735l-.117.089a.415.415,0,0,0-.126.506,2.653,2.653,0,0,1,.239,2.035.066.066,0,0,0,.1.08,2.616,2.616,0,0,0,1.07-1.558,5.344,5.344,0,0,0,.028-2.1.044.044,0,0,0-.069-.028l-.158.119a.23.23,0,0,0-.087.232,3.558,3.558,0,0,1-.278,2.239.032.032,0,0,1-.061-.011,5.337,5.337,0,0,0-.449-1.582A.058.058,0,0,0,359.823,91.735Z" transform="translate(-351.496 -86.877)"/><path class="b" d="M351.984,97.843a2.9,2.9,0,0,0-.38.293.043.043,0,0,0-.015.035,2.71,2.71,0,0,1-.247,2.033.044.044,0,0,1-.08-.03,2.882,2.882,0,0,0-.28-1.51.045.045,0,0,0-.061-.022,1.145,1.145,0,0,0-.334.21.046.046,0,0,0-.013.046,3.3,3.3,0,0,1,.26,2.063.043.043,0,0,0,.067.048,3.073,3.073,0,0,0,1.113-1.382,2.884,2.884,0,0,0,.039-1.76A.047.047,0,0,0,351.984,97.843Z" transform="translate(-344.473 -92.425)"/><path class="b" d="M343.151,103.872l-.284.137a.048.048,0,0,0-.028.05,2.073,2.073,0,0,1-.423,1.712.05.05,0,0,1-.082-.043,7.525,7.525,0,0,0-.043-1.341.05.05,0,0,0-.072-.039l-.325.156a.047.047,0,0,0-.026.056,3.261,3.261,0,0,1-.106,2.055,2.86,2.86,0,0,0,1.256-1.161,2.931,2.931,0,0,0,.206-1.54A.049.049,0,0,0,343.151,103.872Z" transform="translate(-337.572 -97.148)"/><path class="b" d="M364.349,100.77l-.367.332a4.609,4.609,0,0,1-1.052,3.526.019.019,0,0,1-.033-.015,8.3,8.3,0,0,0-.132-2.595c-.148.076-.315.208-.462.286.126.612.5,2.949-.213,3.743a3.116,3.116,0,0,0,1.465-1.386,6.639,6.639,0,0,0,.712-1.987A5.352,5.352,0,0,0,364.349,100.77Z" transform="translate(-353.492 -94.723)"/><path class="b" d="M353.745,109.79l-.343.178s.263,2.439-.777,3.068a.039.039,0,0,1-.059-.039,9.955,9.955,0,0,0-.117-2.469,4.426,4.426,0,0,0-.453.236,7.382,7.382,0,0,1-.156,3.63C354.383,113.246,353.745,109.79,353.745,109.79Z" transform="translate(-345.466 -101.786)"/><path class="b" d="M342.576,115.38c-.137.089-.271.178-.408.265a3.684,3.684,0,0,1-.952,3.024.017.017,0,0,1-.028-.017,7.028,7.028,0,0,0,.106-2.606s-.375.169-.558.236a6.488,6.488,0,0,1-.286,3.4,3.907,3.907,0,0,0,1.84-1.749A4.7,4.7,0,0,0,342.576,115.38Z" transform="translate(-336.547 -106.162)"/></g><g transform="translate(2.612 52.38)"><path class="b" d="M343.607,276.72l-.471.462v6.476s-.007.21-.538.267-2.18.317-2.18.317a1.479,1.479,0,0,0-.751.312c-.206.241.147.438.147.438a.458.458,0,0,0,.224.009,5.233,5.233,0,0,0,.69-.247,5.262,5.262,0,0,1,.579-.1c.456-.054.916-.085,1.376-.111.18-.009.36-.017.54-.024.263,0,.523.009.785.022a12.41,12.41,0,0,1,1.577.163,5.087,5.087,0,0,1,.51.115,3.088,3.088,0,0,0,.74.221c.2,0,.3-.1.234-.3a.7.7,0,0,0-.054-.126c-.156-.165-.443-.464-2.977-.679-.13-.02-.473-.148-.453-.477S343.607,276.72,343.607,276.72Z" transform="translate(-338.496 -276.72)"/><path class="b" d="M341.6,279.14v6.24s-.041.256-.464.338a10.486,10.486,0,0,1-1.106.1,7.2,7.2,0,0,0-1.443.228,1.7,1.7,0,0,0-.228.085c-.139.065-.206.184-.373.143-.224-.059-.206-.267-.117-.443.249-.49,2.972-.62,2.972-.62s.395.061.462-.293.054-5.541.054-5.541Z" transform="translate(-337.089 -278.615)"/><path class="b" d="M361.419,308.166s.21.124.3.08c.137-.091.015-.36-.6-.516s-2.241-.267-2.4-.38c.019.145-.011.427.545.473A10.782,10.782,0,0,1,361.419,308.166Z" transform="translate(-353.465 -300.704)"/><path class="b" d="M374.11,313.12a.313.313,0,0,1,.059.38.591.591,0,0,1,.644.059S374.787,313.2,374.11,313.12Z" transform="translate(-365.516 -305.222)"/><path class="b" d="M372.69,310.28a.262.262,0,0,1,.022.33.8.8,0,0,1,.6.2A.686.686,0,0,0,372.69,310.28Z" transform="translate(-364.404 -302.999)"/><path class="b" d="M336.967,312.67a.316.316,0,0,0-.022.384.588.588,0,0,0-.636.122S336.3,312.82,336.967,312.67Z" transform="translate(-335.917 -304.87)"/><path class="b" d="M335.121,310.22a.262.262,0,0,0-.022.33.8.8,0,0,0-.6.2A.691.691,0,0,1,335.121,310.22Z" transform="translate(-334.5 -302.952)"/></g><g transform="translate(3.609)"><path class="a" d="M345.87,75.987a3.4,3.4,0,0,0,1.812-1.139,1.38,1.38,0,0,1,.161-.178,1.791,1.791,0,0,1-.848,1.352,1.779,1.779,0,0,0,.809.258.674.674,0,0,0,.51-.122,1.764,1.764,0,0,1-.438.423,1.049,1.049,0,0,1-.349.145,1.255,1.255,0,0,1-.605-.065A1.945,1.945,0,0,1,345.87,75.987Z" transform="translate(-344.4 -66.128)"/><path class="a" d="M343.723,65.69a3.251,3.251,0,0,1-.453,1.1,1.492,1.492,0,0,1-.79.807,1.266,1.266,0,0,0,.829.156,2.117,2.117,0,0,0,.742-.3,1.388,1.388,0,0,0,.742-.924,1.965,1.965,0,0,1-1.161.523A1.555,1.555,0,0,0,343.723,65.69Z" transform="translate(-341.746 -59.096)"/><path class="a" d="M344.082,58.212a1.762,1.762,0,0,1-1.1.469,1.239,1.239,0,0,0,.38-.9,7.411,7.411,0,0,0,.028-1.2.582.582,0,0,1,.3.356,1.424,1.424,0,0,1-.009,1.007c.013-.035.41-.191.466-.236a1.834,1.834,0,0,0,.351-.414A1.245,1.245,0,0,1,344.082,58.212Z" transform="translate(-342.137 -51.963)"/><path class="a" d="M356.11,68.7a1.478,1.478,0,0,0,.171.649,1.84,1.84,0,0,1-1.035-2.2,2.349,2.349,0,0,0,.514,1.159c-.106-.128.03-.553.08-.686a1.163,1.163,0,0,1,.421-.573c.1.128-.1.594-.124.768A4.251,4.251,0,0,0,356.11,68.7Z" transform="translate(-351.687 -60.161)"/><path class="a" d="M353.366,57.3a5.184,5.184,0,0,0-.21,1.028,2.384,2.384,0,0,1-.558-1.037,1.554,1.554,0,0,1,.165-1.148A3.025,3.025,0,0,0,353,57.353c-.054-.13.217-.462.3-.549a1.1,1.1,0,0,1,.54-.341c-.02.126-.165.236-.237.347A2.191,2.191,0,0,0,353.366,57.3Z" transform="translate(-349.635 -51.618)"/><path class="a" d="M360.869,60.912a2.148,2.148,0,0,1-.889-.974,1.509,1.509,0,0,1,.033-1.3,7.048,7.048,0,0,0,.471,1.278,1.562,1.562,0,0,1,.714-1.2c-.085.36-.275.688-.334,1.067C360.835,59.948,360.709,60.816,360.869,60.912Z" transform="translate(-355.346 -53.576)"/><path class="a" d="M364.68,71.937a1.2,1.2,0,0,1,.085-1.237,6.039,6.039,0,0,0-.013.655.739.739,0,0,1,.827-.3,1.538,1.538,0,0,0-.534.341C364.98,71.464,364.628,71.837,364.68,71.937Z" transform="translate(-359.025 -63.019)"/><path class="a" d="M342.8,51.04a1.741,1.741,0,0,0-.284.746,1.911,1.911,0,0,1-.052-.95,1.1,1.1,0,0,1,.558-.746,2.007,2.007,0,0,0-.2.553c.035-.178.508-.208.568-.061A1.487,1.487,0,0,0,342.8,51.04Z" transform="translate(-341.699 -46.881)"/><path class="a" d="M343.09,44.523a1.74,1.74,0,0,0-.479.638,1.906,1.906,0,0,1,.215-.929,1.1,1.1,0,0,1,.744-.562,1.913,1.913,0,0,0-.345.477c.083-.161.545-.061.562.1A1.449,1.449,0,0,0,343.09,44.523Z" transform="translate(-341.847 -41.854)"/><path class="a" d="M369.085,48.3a1.577,1.577,0,0,0-.963-.668,3.686,3.686,0,0,0-1.443-.135.86.86,0,0,0-.77.44,2.055,2.055,0,0,0,1.749.013c.18-.089.271-.007.263-.007a1.085,1.085,0,0,1-.625.738,3.225,3.225,0,0,1-.972.239.806.806,0,0,1-1.081-.818.273.273,0,0,1-.006-.139.232.232,0,0,1,.067-.1,5.84,5.84,0,0,0,.716-.647c.1-.143.161-.312.269-.449a.424.424,0,0,1,.456-.176,2.249,2.249,0,0,1,.2.126,1,1,0,0,0,.521.035,1.589,1.589,0,0,1,1.178.434A1.451,1.451,0,0,1,369.085,48.3Z" transform="translate(-359.559 -44.127)"/><path class="a" d="M350.62,45.154a1.808,1.808,0,0,0,1.256.864,1.565,1.565,0,0,0,.963-.269,1.688,1.688,0,0,0,.744-.66c.039-.089.076-.18.115-.269a.872.872,0,0,1-.725.219l-1.543-.052A1.2,1.2,0,0,0,350.62,45.154Zm.471.08h.469a.446.446,0,0,0,.432.434c.495-.1.479-.421.479-.421s.486-.024.545-.024a1.156,1.156,0,0,1-1.087.668A.974.974,0,0,1,351.091,45.234Z" transform="translate(-348.12 -42.754)"/><path class="a" d="M345.724,36.832s.085-.792-1.05-.8-1.842,0-1.842,0a1.833,1.833,0,0,0-.909-.308s.223.256.165.369h-1.534s-.8-.286-.961-.794c0,0-.3.512.54.983,0,0-.8.037-1.035-.3,0,0-.15.642,1.556.768A49.559,49.559,0,0,1,345.724,36.832Z" transform="translate(-339.095 -35.3)"/><path class="a" d="M345.87,75.987a3.4,3.4,0,0,0,1.812-1.139,1.38,1.38,0,0,1,.161-.178,1.791,1.791,0,0,1-.848,1.352,1.779,1.779,0,0,0,.809.258.674.674,0,0,0,.51-.122,1.764,1.764,0,0,1-.438.423,1.049,1.049,0,0,1-.349.145,1.255,1.255,0,0,1-.605-.065A1.945,1.945,0,0,1,345.87,75.987Z" transform="translate(-344.4 -66.128)"/><path class="a" d="M343.723,65.69a3.251,3.251,0,0,1-.453,1.1,1.492,1.492,0,0,1-.79.807,1.266,1.266,0,0,0,.829.156,2.117,2.117,0,0,0,.742-.3,1.388,1.388,0,0,0,.742-.924,1.965,1.965,0,0,1-1.161.523A1.555,1.555,0,0,0,343.723,65.69Z" transform="translate(-341.746 -59.096)"/><path class="a" d="M344.082,58.212a1.762,1.762,0,0,1-1.1.469,1.239,1.239,0,0,0,.38-.9,7.411,7.411,0,0,0,.028-1.2.582.582,0,0,1,.3.356,1.424,1.424,0,0,1-.009,1.007c.013-.035.41-.191.466-.236a1.834,1.834,0,0,0,.351-.414A1.245,1.245,0,0,1,344.082,58.212Z" transform="translate(-342.137 -51.963)"/><path class="a" d="M356.11,68.7a1.478,1.478,0,0,0,.171.649,1.84,1.84,0,0,1-1.035-2.2,2.349,2.349,0,0,0,.514,1.159c-.106-.128.03-.553.08-.686a1.163,1.163,0,0,1,.421-.573c.1.128-.1.594-.124.768A4.251,4.251,0,0,0,356.11,68.7Z" transform="translate(-351.687 -60.161)"/><path class="a" d="M353.366,57.3a5.184,5.184,0,0,0-.21,1.028,2.384,2.384,0,0,1-.558-1.037,1.554,1.554,0,0,1,.165-1.148A3.025,3.025,0,0,0,353,57.353c-.054-.13.217-.462.3-.549a1.1,1.1,0,0,1,.54-.341c-.02.126-.165.236-.237.347A2.191,2.191,0,0,0,353.366,57.3Z" transform="translate(-349.635 -51.618)"/><path class="a" d="M360.869,60.912a2.148,2.148,0,0,1-.889-.974,1.509,1.509,0,0,1,.033-1.3,7.048,7.048,0,0,0,.471,1.278,1.562,1.562,0,0,1,.714-1.2c-.085.36-.275.688-.334,1.067C360.835,59.948,360.709,60.816,360.869,60.912Z" transform="translate(-355.346 -53.576)"/><path class="a" d="M364.68,71.937a1.2,1.2,0,0,1,.085-1.237,6.039,6.039,0,0,0-.013.655.739.739,0,0,1,.827-.3,1.538,1.538,0,0,0-.534.341C364.98,71.464,364.628,71.837,364.68,71.937Z" transform="translate(-359.025 -63.019)"/><path class="a" d="M342.8,51.04a1.741,1.741,0,0,0-.284.746,1.911,1.911,0,0,1-.052-.95,1.1,1.1,0,0,1,.558-.746,2.007,2.007,0,0,0-.2.553c.035-.178.508-.208.568-.061A1.487,1.487,0,0,0,342.8,51.04Z" transform="translate(-341.699 -46.881)"/><path class="a" d="M343.09,44.523a1.74,1.74,0,0,0-.479.638,1.906,1.906,0,0,1,.215-.929,1.1,1.1,0,0,1,.744-.562,1.913,1.913,0,0,0-.345.477c.083-.161.545-.061.562.1A1.449,1.449,0,0,0,343.09,44.523Z" transform="translate(-341.847 -41.854)"/><path class="a" d="M369.085,48.3a1.577,1.577,0,0,0-.963-.668,3.686,3.686,0,0,0-1.443-.135.86.86,0,0,0-.77.44,2.055,2.055,0,0,0,1.749.013c.18-.089.271-.007.263-.007a1.085,1.085,0,0,1-.625.738,3.225,3.225,0,0,1-.972.239.806.806,0,0,1-1.081-.818.273.273,0,0,1-.006-.139.232.232,0,0,1,.067-.1,5.84,5.84,0,0,0,.716-.647c.1-.143.161-.312.269-.449a.424.424,0,0,1,.456-.176,2.249,2.249,0,0,1,.2.126,1,1,0,0,0,.521.035,1.589,1.589,0,0,1,1.178.434A1.451,1.451,0,0,1,369.085,48.3Z" transform="translate(-359.559 -44.127)"/><path class="a" d="M350.62,45.154a1.808,1.808,0,0,0,1.256.864,1.565,1.565,0,0,0,.963-.269,1.688,1.688,0,0,0,.744-.66c.039-.089.076-.18.115-.269a.872.872,0,0,1-.725.219l-1.543-.052A1.2,1.2,0,0,0,350.62,45.154Zm.471.08h.469a.446.446,0,0,0,.432.434c.495-.1.479-.421.479-.421s.486-.024.545-.024a1.156,1.156,0,0,1-1.087.668A.974.974,0,0,1,351.091,45.234Z" transform="translate(-348.12 -42.754)"/><path class="a" d="M345.724,36.832s.085-.792-1.05-.8-1.842,0-1.842,0a1.833,1.833,0,0,0-.909-.308s.223.256.165.369h-1.534s-.8-.286-.961-.794c0,0-.3.512.54.983,0,0-.8.037-1.035-.3,0,0-.15.642,1.556.768A49.559,49.559,0,0,1,345.724,36.832Z" transform="translate(-339.095 -35.3)"/></g></g></svg>